<svg width="23" height="23" viewBox="0 0 23 23" fill="none" xmlns="http://www.w3.org/2000/svg">
<rect width="23" height="23" fill="#E5E5E5"/>
<rect id="Rectangle 109" x="-21.5" y="-17.5" width="315" height="452" rx="9.5" fill="white" stroke="#C9C9C9"/>
<g id="Group 181">
<g id="Vector">
<path d="M4.50092 9.7711H11.3279V14.4345C11.3279 14.9496 10.9092 15.3672 10.3927 15.3672H5.43613C4.91963 15.3672 4.50092 14.9496 4.50092 14.4345V9.7711Z" fill="#FD4304"/>
<path d="M7.20884 0.32053C7.58163 -0.106843 8.24722 -0.106843 8.62001 0.32053L15.5974 8.31954C16.1239 8.92316 15.694 9.86437 14.8918 9.86437H0.937023C0.134803 9.86437 -0.295088 8.92316 0.231436 8.31954L7.20884 0.32053Z" fill="#FD4304"/>
</g>
<g id="Vector_2">
<path d="M11.4262 16.4084H18.2532V21.0918C18.2532 21.6091 17.8345 22.0285 17.318 22.0285H12.3614C11.8449 22.0285 11.4262 21.6091 11.4262 21.0918V16.4084Z" fill="#14D8C4" style="mix-blend-mode:darken"/>
<path d="M14.1341 6.91724C14.5069 6.48803 15.1725 6.48804 15.5453 6.91724L22.5227 14.9506C23.0492 15.5568 22.6193 16.502 21.8171 16.502H7.86232C7.0601 16.502 6.63021 15.5568 7.15673 14.9506L14.1341 6.91724Z" fill="#14D8C4" style="mix-blend-mode:darken"/>
</g>
</g>
</svg>
